<?xml version="1.0" encoding="iso-8859-1"?>
<!-- Generator: Adobe Illustrator 19.0.0, SVG Export Plug-In . SVG Version: 6.00 Build 0)  -->
<svg version="1.1" id="Layer_1" xmlns="http://www.w3.org/2000/svg" xmlns:xlink="http://www.w3.org/1999/xlink" x="0px" y="0px"
	 viewBox="0 0 512 512" style="enable-background:new 0 0 512 512;" xml:space="preserve">
<g>
	<path style="fill:#753E03;" d="M375.263,313.58c-1.099,0-27.041-0.364-38.37-32.089c-5.903-16.52-33.26-29.36-46.9-33.842
		c-4.862-1.597-7.507-6.832-5.909-11.693c1.596-4.861,6.83-7.509,11.693-5.911c8.024,2.636,48.557,17.206,58.565,45.212
		c6.877,19.255,20.783,19.794,20.923,19.794c5.118,0,9.264,4.148,9.264,9.264S380.38,313.58,375.263,313.58z"/>
	<path style="fill:#753E03;" d="M374.922,405.47c-1.065-0.273-26.099-7.08-29.181-40.626c-1.608-17.47-24.91-36.713-37.005-44.446
		c-4.311-2.756-5.571-8.485-2.815-12.796c2.755-4.31,8.484-5.573,12.796-2.815c7.116,4.549,42.749,28.745,45.475,58.36
		c1.87,20.36,15.206,24.342,15.339,24.376c4.956,1.274,7.941,6.322,6.668,11.278C384.925,403.757,379.879,406.743,374.922,405.47z"
		/>
	<path style="fill:#753E03;" d="M356.559,500.607c-0.962-0.53-23.512-13.362-18.137-46.616
		c2.797-17.319-14.975-41.761-24.762-52.266c-3.488-3.744-3.281-9.605,0.463-13.094c3.742-3.488,9.604-3.283,13.094,0.462
		c5.757,6.18,34.237,38.491,29.498,67.852c-3.262,20.184,8.66,27.363,8.781,27.43c4.483,2.468,6.116,8.102,3.648,12.583
		C366.674,501.442,361.041,503.075,356.559,500.607z"/>
	<path style="fill:#753E03;" d="M136.738,313.58c1.099,0,27.041-0.364,38.37-32.089c5.903-16.52,33.26-29.36,46.9-33.842
		c4.862-1.597,7.507-6.832,5.909-11.693c-1.596-4.861-6.83-7.509-11.693-5.911c-8.024,2.636-48.557,17.206-58.565,45.212
		c-6.877,19.255-20.783,19.794-20.923,19.794c-5.118,0-9.264,4.148-9.264,9.264S131.62,313.58,136.738,313.58z"/>
	<path style="fill:#753E03;" d="M137.078,405.47c1.065-0.273,26.099-7.08,29.181-40.626c1.608-17.47,24.91-36.713,37.005-44.446
		c4.311-2.756,5.571-8.485,2.815-12.796c-2.755-4.31-8.484-5.573-12.796-2.815c-7.116,4.549-42.749,28.745-45.475,58.36
		c-1.87,20.36-15.206,24.342-15.339,24.376c-4.956,1.274-7.941,6.322-6.668,11.278C127.073,403.757,132.121,406.743,137.078,405.47z
		"/>
	<path style="fill:#753E03;" d="M155.442,500.607c0.962-0.53,23.512-13.362,18.137-46.616
		c-2.797-17.319,14.975-41.761,24.762-52.266c3.488-3.744,3.281-9.605-0.463-13.094c-3.742-3.488-9.604-3.283-13.094,0.462
		c-5.757,6.18-34.237,38.491-29.498,67.852c3.262,20.184-8.66,27.363-8.781,27.43c-4.483,2.468-6.114,8.102-3.648,12.583
		C145.326,501.442,150.959,503.075,155.442,500.607z"/>
	<path style="fill:#753E03;" d="M233.116,180.337c0,0-0.019-0.199-0.054-0.583c-0.038-0.368-0.094-0.914-0.168-1.626
		c-0.161-1.481-0.437-3.698-0.851-6.531c-0.839-5.662-2.221-13.805-4.486-23.481c-1.093-4.847-2.482-10.054-4.008-15.55
		c-1.608-5.47-3.351-11.239-5.44-17.111c-2.013-5.902-4.393-11.889-6.894-17.949c-2.613-6.003-5.358-12.082-8.445-17.989
		l-2.302-4.439c-0.815-1.453-1.629-2.903-2.442-4.351c-1.589-2.924-3.34-5.729-5.057-8.533c-1.665-2.842-3.572-5.482-5.331-8.191
		c-1.778-2.695-3.735-5.207-5.555-7.768c-1.866-2.522-3.848-4.887-5.713-7.272c-1.906-2.348-3.911-4.525-5.791-6.716
		c-3.9-4.243-7.679-8.202-11.416-11.595c-0.92-0.866-1.822-1.713-2.704-2.542c-0.888-0.823-1.815-1.553-2.687-2.306
		c-1.763-1.488-3.435-2.902-5.006-4.228c-3.285-2.47-6.128-4.678-8.538-6.397C135.295,1.884,132.477,0,132.477,0
		s2.974,1.64,8.18,4.51c2.559,1.514,5.593,3.48,9.119,5.688c1.696,1.201,3.501,2.478,5.404,3.826
		c0.945,0.684,1.948,1.346,2.915,2.099c0.962,0.761,1.945,1.538,2.951,2.332c4.08,3.117,8.254,6.798,12.598,10.782
		c2.101,2.062,4.341,4.115,6.491,6.344c2.109,2.265,4.348,4.519,6.478,6.937c2.084,2.454,4.317,4.872,6.376,7.476
		c2.039,2.616,4.239,5.181,6.198,7.948c2.012,2.73,4.068,5.473,5.959,8.339c0.966,1.422,1.934,2.847,2.904,4.274l2.766,4.374
		c3.709,5.829,7.084,11.861,10.323,17.852c3.125,6.043,6.123,12.047,8.737,17.988c2.689,5.912,5.013,11.743,7.174,17.298
		c2.08,5.582,3.991,10.891,5.568,15.858c3.231,9.91,5.425,18.353,6.841,24.335c0.703,2.995,1.209,5.373,1.535,7.032
		c0.163,0.86,0.289,1.518,0.373,1.962c0.077,0.429,0.116,0.65,0.116,0.65c0.904,5.041-2.449,9.861-7.49,10.766
		c-5.041,0.904-9.862-2.449-10.766-7.49c-0.046-0.256-0.08-0.511-0.105-0.765L233.116,180.337z"/>
	<path style="fill:#753E03;" d="M260.515,177.904c0,0,0.04-0.221,0.116-0.65c0.084-0.443,0.21-1.103,0.373-1.962
		c0.327-1.66,0.833-4.038,1.535-7.032c1.416-5.982,3.609-14.425,6.841-24.335c1.577-4.967,3.488-10.276,5.568-15.858
		c2.162-5.555,4.485-11.388,7.174-17.298c2.613-5.94,5.612-11.945,8.737-17.988c3.239-5.991,6.612-12.023,10.323-17.852l2.766-4.374
		c0.97-1.427,1.937-2.852,2.904-4.274c1.891-2.867,3.947-5.609,5.959-8.339c1.959-2.767,4.159-5.33,6.198-7.948
		c2.058-2.604,4.292-5.021,6.376-7.476c2.131-2.419,4.37-4.67,6.478-6.937c2.151-2.23,4.39-4.283,6.491-6.344
		c4.344-3.986,8.518-7.667,12.598-10.782c1.005-0.794,1.989-1.571,2.951-2.332c0.966-0.752,1.97-1.414,2.915-2.099
		c1.903-1.346,3.708-2.625,5.404-3.826c3.525-2.209,6.559-4.174,9.119-5.688C376.548,1.64,379.523,0,379.523,0
		s-2.818,1.884-7.749,5.179c-2.411,1.721-5.255,3.928-8.538,6.397c-1.571,1.328-3.244,2.74-5.006,4.228
		c-0.872,0.753-1.8,1.484-2.687,2.306c-0.882,0.829-1.782,1.676-2.704,2.542c-3.737,3.393-7.516,7.352-11.416,11.595
		c-1.88,2.191-3.884,4.368-5.791,6.716c-1.865,2.385-3.847,4.75-5.713,7.272c-1.819,2.561-3.777,5.072-5.555,7.768
		c-1.759,2.708-3.666,5.349-5.331,8.191c-1.717,2.805-3.47,5.609-5.057,8.533c-0.813,1.448-1.627,2.898-2.442,4.351l-2.301,4.439
		c-3.087,5.906-5.833,11.986-8.445,17.989c-2.503,6.06-4.88,12.047-6.895,17.949c-2.089,5.87-3.83,11.64-5.44,17.111
		c-1.527,5.498-2.915,10.703-4.008,15.55c-2.264,9.676-3.648,17.817-4.486,23.481c-0.414,2.831-0.69,5.05-0.851,6.531
		c-0.073,0.712-0.13,1.257-0.168,1.626c-0.036,0.385-0.054,0.583-0.054,0.583l-0.006,0.061c-0.472,5.1-4.989,8.852-10.089,8.38
		c-5.1-0.472-8.852-4.99-8.379-10.089C260.433,178.429,260.472,178.156,260.515,177.904z"/>
</g>
<path style="fill:#E09B2D;" d="M284.398,215.06c1.68-3.817,2.619-8.041,2.619-12.476c0-17.133-13.884-31.017-31.017-31.017
	c-17.12,0-31.017,13.884-31.017,31.017c0,4.435,0.939,8.659,2.619,12.476"/>
<path style="fill:#B27214;" d="M328.07,357.286c0,7.634-0.259,15.144-0.753,22.481c-0.333,4.953-0.778,9.832-1.334,14.613
	c-1.099,9.647-2.631,18.936-4.533,27.768c-1.112,5.188-2.359,10.228-3.743,15.082c-2.989,10.635-6.571,20.443-10.635,29.201
	c-2.594,5.596-5.386,10.771-8.35,15.453C286.764,500.821,271.99,512,255.994,512s-30.77-11.179-42.715-30.115
	c-2.977-4.682-5.769-9.857-8.35-15.453c-4.064-8.758-7.646-18.553-10.635-29.189c-1.371-4.854-2.619-9.894-3.743-15.082
	c-1.902-8.832-3.434-18.133-4.533-27.781c-0.556-4.78-1.001-9.66-1.334-14.613c-0.494-7.337-0.753-14.848-0.753-22.481
	c0-1.371,0.012-2.73,0.025-4.089c0.062-4.756,0.21-9.45,0.469-14.082c0.383-6.991,0.976-13.835,1.779-20.505
	c0.556-4.62,1.198-9.153,1.952-13.588c1.272-7.671,2.829-15.058,4.632-22.111V282.9c1.346-5.25,2.829-10.327,4.435-15.181
	c3.385-10.203,7.325-19.48,11.735-27.632c3.1-5.744,6.436-10.932,9.981-15.49c10.821-13.971,23.494-22.012,37.057-22.012
	c13.551,0,26.237,8.029,37.07,22c3.348,4.311,6.51,9.19,9.474,14.576c4.607,8.375,8.721,17.973,12.241,28.559
	c1.606,4.854,3.088,9.931,4.422,15.181c1.816,7.053,3.372,14.452,4.645,22.123c0.753,4.435,1.396,8.968,1.952,13.588
	c0.803,6.67,1.396,13.514,1.779,20.505c0.259,4.632,0.408,9.326,0.469,14.082C328.058,354.556,328.07,355.915,328.07,357.286z"/>
<path style="fill:#995C0D;" d="M219.752,357.29c0-72.169,23.021-132.793,54.159-149.888c-5.727-3.144-11.727-4.817-17.911-4.817
	c-39.803,0-72.07,69.265-72.07,154.707S216.197,511.998,256,511.998c6.184,0,12.184-1.674,17.911-4.817
	C242.773,490.082,219.752,429.457,219.752,357.29z"/>
<g>
	<path style="fill:#753E03;" d="M321.449,422.149c-1.112,5.188-2.359,10.228-3.743,15.082c-20.048,5.176-40.775,7.794-61.713,7.794
		c-20.9,0-41.628-2.606-61.7-7.782c-1.371-4.854-2.619-9.894-3.743-15.082l3.545,0.976c20.06,5.509,40.886,8.301,61.898,8.301
		c21.036,0,41.862-2.804,61.91-8.313L321.449,422.149z"/>
	<path style="fill:#753E03;" d="M328.045,353.197c-23.247,7.115-47.483,10.71-72.052,10.71c-24.557,0-48.78-3.595-72.039-10.71
		c0.062-4.756,0.21-9.45,0.469-14.082l1.729,0.544c22.506,7.078,46.013,10.66,69.841,10.66c23.84,0,47.347-3.582,69.853-10.66
		l1.729-0.544C327.835,343.748,327.984,348.442,328.045,353.197z"/>
	<path style="fill:#753E03;" d="M319.201,282.9l-3.805-1.001c-19.233-5.089-39.219-7.659-59.39-7.659
		c-20.159,0-40.145,2.582-59.39,7.659l-3.829,1.001c1.346-5.25,2.829-10.327,4.435-15.181c19.122-4.682,38.873-7.066,58.785-7.066
		c19.924,0,39.664,2.372,58.773,7.066C316.385,272.573,317.867,277.65,319.201,282.9z"/>
	<path style="fill:#753E03;" d="M302.538,239.16h-4.027c-0.395,0-0.803-0.037-1.198-0.111c-27.002-4.854-55.635-4.854-82.613,0
		l-5.744,1.038c3.1-5.744,6.436-10.932,9.981-15.49c24.359-3.693,49.755-3.693,74.127-0.012
		C296.411,228.895,299.573,233.774,302.538,239.16z"/>
	<path style="fill:#753E03;" d="M327.317,379.767c-0.333,4.953-0.778,9.832-1.334,14.613c-22.617,6.707-46.136,10.092-69.989,10.092
		c-23.84,0-47.372-3.385-69.976-10.092c-0.556-4.78-1.001-9.66-1.334-14.613l2.606,0.803c22.136,6.843,45.259,10.314,68.704,10.314
		c23.457,0,46.581-3.471,68.729-10.314L327.317,379.767z"/>
	<path style="fill:#753E03;" d="M307.071,466.432c-2.594,5.596-5.386,10.771-8.35,15.453c-14.045,2.458-28.386,3.693-42.727,3.693
		c-14.329,0-28.67-1.235-42.715-3.693c-2.977-4.682-5.769-9.857-8.35-15.453l5.163,1.038c30.053,6.003,61.774,6.003,91.815,0
		L307.071,466.432z"/>
	<path style="fill:#753E03;" d="M325.797,318.611H186.203c0.556-4.62,1.198-9.153,1.952-13.588h135.691
		C324.599,309.458,325.241,313.991,325.797,318.611z"/>
</g>
<g>
</g>
<g>
</g>
<g>
</g>
<g>
</g>
<g>
</g>
<g>
</g>
<g>
</g>
<g>
</g>
<g>
</g>
<g>
</g>
<g>
</g>
<g>
</g>
<g>
</g>
<g>
</g>
<g>
</g>
</svg>
